<?xml version="1.0" standalone="no"?><svg xmlns="http://www.w3.org/2000/svg" viewBox="0 0 1440 320"><path fill="#406882" fill-opacity="1" d="M0,96L30,80C60,64,120,32,180,48C240,64,300,128,360,144C420,160,480,128,540,138.7C600,149,660,203,720,202.7C780,203,840,149,900,160C960,171,1020,245,1080,277.3C1140,309,1200,299,1260,261.3C1320,224,1380,160,1410,128L1440,96L1440,320L1410,320C1380,320,1320,320,1260,320C1200,320,1140,320,1080,320C1020,320,960,320,900,320C840,320,780,320,720,320C660,320,600,320,540,320C480,320,420,320,360,320C300,320,240,320,180,320C120,320,60,320,30,320L0,320Z"></path></svg>